<svg id="Layer_1" data-name="Layer 1" xmlns="http://www.w3.org/2000/svg" viewBox="0 0 231.4 72.35"><defs><style>.cls-1{fill:#555655}.cls-2{fill:#7bbc55}.cls-3{fill:#17a84e}</style></defs><title>Indaba Logo 012816 -kc1</title><path class="cls-1" d="M74.87 17.22h5.34A.68.68 0 0 1 81 18v34.4a.68.68 0 0 1-.77.77h-5.36a.68.68 0 0 1-.77-.77V18a.68.68 0 0 1 .77-.78zM112.92 18v34.4a.68.68 0 0 1-.77.77h-6.73a.94.94 0 0 1-.92-.56L94.43 28.93v23.46a.68.68 0 0 1-.77.77h-5.23a.68.68 0 0 1-.77-.77V18a.68.68 0 0 1 .77-.77h6.77a.94.94 0 0 1 .92.57l10 23.62V18a.68.68 0 0 1 .77-.77h5.24a.68.68 0 0 1 .79.77zM144.09 27.23V43c0 6.06-3.23 10.12-10.17 10.12h-13.55a.68.68 0 0 1-.77-.77V18a.68.68 0 0 1 .77-.77h13.56c6.92-.01 10.16 4 10.16 10zm-6.78 0c0-3.13-1-4-3.39-4h-7.55V47.1h7.55c2.36 0 3.39-.82 3.39-4.06V27.23zM172.08 53.16h-5.49a.89.89 0 0 1-.92-.82l-1.5-6.34h-8.68L154 52.34a.89.89 0 0 1-.92.82h-5.44a.57.57 0 0 1-.62-.82l9.7-34.3a1 1 0 0 1 1-.82H162a1 1 0 0 1 1 .82l9.7 34.3c.09.57-.11.82-.62.82zm-9.34-13l-2.94-12.11-2.88 12.07h5.8zM202.48 40.69v2.77c0 6.37-3.39 9.7-10.73 9.7h-13.4a.68.68 0 0 1-.77-.77V18a.68.68 0 0 1 .77-.77h13.2c6.62 0 9.65 2.82 9.65 10a9.42 9.42 0 0 1-2.2 6.42 8.42 8.42 0 0 1 3.48 7.04zm-10.94-17.41h-7.19v8.16h7.19c2.05 0 2.88-.51 2.88-4.26-.01-3.59-.83-3.9-2.88-3.9zm4.16 17.41c0-2.93-1.18-3.75-4-3.75h-7.39V47.1h7.39c2.77 0 4-.77 4-3.65v-2.76zM230.72 53.16h-5.49a.89.89 0 0 1-.92-.82l-1.5-6.34h-8.68l-1.54 6.32a.89.89 0 0 1-.92.82h-5.44a.57.57 0 0 1-.62-.82l9.7-34.3a1 1 0 0 1 1-.82h4.36a1 1 0 0 1 1 .82l9.71 34.3c.06.59-.15.84-.66.84zm-9.35-13l-2.93-12.07-2.87 12.07h5.8zM78.17 69.28h-1.49v-7.86H74v-1.29h6.87v1.28h-2.7v7.86zM87 69.28l-.21-.91h-.09a2.09 2.09 0 0 1-.87.76 2.92 2.92 0 0 1-1.29.27 2.53 2.53 0 0 1-1.88-.63 2.59 2.59 0 0 1-.66-1.89v-4.52h1.48v4.26a1.85 1.85 0 0 0 .33 1.19 1.24 1.24 0 0 0 1 .4 1.62 1.62 0 0 0 1.36-.55 3.05 3.05 0 0 0 .43-1.85v-3.45h1.48v6.92H87zM93.74 62.23a3.54 3.54 0 0 1 .73.06l-.14 1.37a2.75 2.75 0 0 0-.65-.08 1.88 1.88 0 0 0-1.43.58 2.08 2.08 0 0 0-.55 1.5v3.61h-1.47v-6.91h1.15l.19 1.22h.07a2.74 2.74 0 0 1 .9-1 2.14 2.14 0 0 1 1.2-.35zM101.84 69.28h-1.48V65a1.86 1.86 0 0 0-.32-1.19 1.24 1.24 0 0 0-1-.39 1.63 1.63 0 0 0-1.36.55 3 3 0 0 0-.43 1.84v3.45h-1.49v-6.9h1.15l.21.91h.07a2 2 0 0 1 .89-.76 3 3 0 0 1 1.28-.27 2.22 2.22 0 0 1 2.49 2.53v4.51zM108.63 65.62l.83-1 2.09-2.23h1.69l-2.78 3 3 3.95h-1.73l-2.22-3-.81.66v2.37h-1.46v-9.82h1.46v4.75l-.07 1.33zM120.62 69.28h-1.48V65a1.86 1.86 0 0 0-.32-1.19 1.24 1.24 0 0 0-1-.39 1.63 1.63 0 0 0-1.36.55 3 3 0 0 0-.43 1.84v3.45h-1.47v-6.9h1.15l.21.91h.08a2 2 0 0 1 .89-.76 3 3 0 0 1 1.28-.27 2.22 2.22 0 0 1 2.49 2.53v4.51zM128.8 65.8a3.78 3.78 0 0 1-.87 2.65 3.11 3.11 0 0 1-2.42.95 3.32 3.32 0 0 1-1.71-.44 2.89 2.89 0 0 1-1.14-1.26 4.28 4.28 0 0 1-.4-1.9 3.75 3.75 0 0 1 .86-2.63 3.13 3.13 0 0 1 2.43-.94 3 3 0 0 1 2.38 1 3.73 3.73 0 0 1 .87 2.57zm-5 0q0 2.39 1.77 2.39t1.75-2.39q0-2.37-1.76-2.37a1.5 1.5 0 0 0-1.34.61 3.11 3.11 0 0 0-.46 1.76zM136.16 69.28l-.9-3.28q-.16-.51-.59-2.38h-.06q-.36 1.69-.58 2.39l-.92 3.21h-1.61l-1.94-6.92h1.5l.88 3.41q.3 1.26.43 2.16.06-.46.19-1c.09-.39.16-.69.22-.89l1.05-3.64h1.61l1 3.64c.06.2.14.52.23.94a7.2 7.2 0 0 1 .17 1h.05a19.22 19.22 0 0 1 .44-2.15l.89-3.41h1.48l-2 6.92h-1.65zM142.41 69.28h-1.47v-9.73h1.47v9.73zM147.54 69.4a3.34 3.34 0 0 1-2.52-.94 3.57 3.57 0 0 1-.91-2.59 3.92 3.92 0 0 1 .84-2.66 2.92 2.92 0 0 1 2.32-1 2.85 2.85 0 0 1 2.16.83 3.18 3.18 0 0 1 .79 2.29v.79h-4.61a2.27 2.27 0 0 0 .54 1.55 1.9 1.9 0 0 0 1.44.54 5.32 5.32 0 0 0 1.14-.12 6 6 0 0 0 1.13-.38v1.19a4.51 4.51 0 0 1-1.09.36 6.72 6.72 0 0 1-1.23.14zm-.27-6.05a1.48 1.48 0 0 0-1.12.44 2.12 2.12 0 0 0-.5 1.29h3.14a1.92 1.92 0 0 0-.41-1.3 1.41 1.41 0 0 0-1.11-.43zM154.23 69.4a2.41 2.41 0 0 1-2-.94 5.14 5.14 0 0 1 0-5.28 2.43 2.43 0 0 1 2-.95 2.38 2.38 0 0 1 2.08 1h.07a8.79 8.79 0 0 1-.11-1.18v-2.5h1.48v9.73h-1.15l-.26-.91h-.04a2.35 2.35 0 0 1-2.07 1.03zm.39-1.19a1.6 1.6 0 0 0 1.32-.51 2.68 2.68 0 0 0 .43-1.65v-.21a3.1 3.1 0 0 0-.43-1.86 1.58 1.58 0 0 0-1.33-.55 1.35 1.35 0 0 0-1.19.63 3.22 3.22 0 0 0-.42 1.79 3.14 3.14 0 0 0 .41 1.75 1.37 1.37 0 0 0 1.21.61zM165.71 62.36v.81l-1.18.22a1.9 1.9 0 0 1 .27.54 2.12 2.12 0 0 1 .11.68 2.07 2.07 0 0 1-.74 1.68 3.09 3.09 0 0 1-2 .61 3.36 3.36 0 0 1-.6 0 .83.83 0 0 0-.47.69.38.38 0 0 0 .22.36 1.92 1.92 0 0 0 .82.12h1.21a2.68 2.68 0 0 1 1.74.49 1.72 1.72 0 0 1 .59 1.41 2 2 0 0 1-1 1.81 5.11 5.11 0 0 1-2.8.64 3.86 3.86 0 0 1-2.16-.5 1.62 1.62 0 0 1-.74-1.43 1.52 1.52 0 0 1 .4-1.07 2.17 2.17 0 0 1 1.13-.6 1.1 1.1 0 0 1-.48-.4 1 1 0 0 1-.19-.58 1 1 0 0 1 .22-.66 2.51 2.51 0 0 1 .65-.53 1.93 1.93 0 0 1-.87-.75 2.22 2.22 0 0 1-.33-1.22 2.19 2.19 0 0 1 .71-1.74 3 3 0 0 1 2-.62 4.8 4.8 0 0 1 .62 0 3.73 3.73 0 0 1 .48.08h2.39zm-5.43 8a.81.81 0 0 0 .43.73 2.36 2.36 0 0 0 1.2.26 3.63 3.63 0 0 0 1.79-.35 1 1 0 0 0 .59-.91.69.69 0 0 0-.32-.64 2.59 2.59 0 0 0-1.2-.19h-1.11a1.57 1.57 0 0 0-1 .3 1 1 0 0 0-.38.79zm.63-5.75a1.39 1.39 0 0 0 .33 1 1.27 1.27 0 0 0 1 .35 1.17 1.17 0 0 0 1.28-1.36 1.55 1.55 0 0 0-.32-1 1.2 1.2 0 0 0-1-.37 1.24 1.24 0 0 0-1 .36 1.53 1.53 0 0 0-.29 1.01zM170 69.4a3.34 3.34 0 0 1-2.52-.94 3.57 3.57 0 0 1-.91-2.59 3.92 3.92 0 0 1 .84-2.66 2.92 2.92 0 0 1 2.32-1 2.85 2.85 0 0 1 2.16.83 3.18 3.18 0 0 1 .79 2.29v.79h-4.61a2.27 2.27 0 0 0 .54 1.55 1.9 1.9 0 0 0 1.44.54 5.32 5.32 0 0 0 1.14-.12 6 6 0 0 0 1.13-.38v1.19a4.51 4.51 0 0 1-1.09.36 6.72 6.72 0 0 1-1.23.14zm-.27-6.05a1.48 1.48 0 0 0-1.12.44 2.12 2.12 0 0 0-.5 1.29h3.14a1.92 1.92 0 0 0-.41-1.3 1.41 1.41 0 0 0-1.09-.43zM177.61 60.53a.81.81 0 0 1 .22-.61.84.84 0 0 1 .62-.21.74.74 0 0 1 .82.82.8.8 0 0 1-.22.59.82.82 0 0 1-.6.22.83.83 0 0 1-.62-.22.8.8 0 0 1-.22-.59zm1.56 8.75h-1.47v-6.92h1.47v6.92zM187.35 69.28h-1.48V65a1.86 1.86 0 0 0-.32-1.19 1.24 1.24 0 0 0-1-.39 1.63 1.63 0 0 0-1.36.55 3 3 0 0 0-.43 1.84v3.45h-1.47v-6.9h1.15l.21.91h.07a2 2 0 0 1 .89-.76 3 3 0 0 1 1.28-.27 2.22 2.22 0 0 1 2.49 2.53v4.51zM192 68.21a3.59 3.59 0 0 0 1-.21v1.11a3 3 0 0 1-.63.18 4.37 4.37 0 0 1-.8.07 1.9 1.9 0 0 1-2.09-2.2v-3.69h-.94v-.65l1-.54.5-1.46h.96v1.54h2v1.11h-2v3.7a1 1 0 0 0 .27.78 1 1 0 0 0 .73.26zM200.57 65.8a3.78 3.78 0 0 1-.87 2.65 3.11 3.11 0 0 1-2.42.95 3.32 3.32 0 0 1-1.71-.44 2.89 2.89 0 0 1-1.14-1.26 4.28 4.28 0 0 1-.4-1.9 3.75 3.75 0 0 1 .86-2.63 3.13 3.13 0 0 1 2.43-.94 3 3 0 0 1 2.38 1 3.73 3.73 0 0 1 .87 2.57zm-5 0q0 2.39 1.77 2.39t1.75-2.39q0-2.37-1.76-2.37a1.5 1.5 0 0 0-1.34.61 3.11 3.11 0 0 0-.46 1.76zM207.91 69.4a2.41 2.41 0 0 1-2-.94 5.14 5.14 0 0 1 0-5.28 2.43 2.43 0 0 1 2-.95 2.38 2.38 0 0 1 2.08 1h.07a8.79 8.79 0 0 1-.11-1.18v-2.5h1.48v9.73h-1.15l-.26-.91H210a2.35 2.35 0 0 1-2.09 1.03zm.39-1.19a1.6 1.6 0 0 0 1.32-.51 2.68 2.68 0 0 0 .43-1.65v-.21a3.1 3.1 0 0 0-.43-1.86 1.58 1.58 0 0 0-1.33-.55 1.35 1.35 0 0 0-1.19.63 3.22 3.22 0 0 0-.42 1.79 3.14 3.14 0 0 0 .41 1.75 1.37 1.37 0 0 0 1.22.61zM217.89 69.28l-.29-1h-.05a2.84 2.84 0 0 1-1 .86 3.19 3.19 0 0 1-1.3.23 2.2 2.2 0 0 1-1.59-.55 2.06 2.06 0 0 1-.57-1.56 1.83 1.83 0 0 1 .79-1.61 4.57 4.57 0 0 1 2.42-.59h1.19v-.38a1.4 1.4 0 0 0-.31-1 1.26 1.26 0 0 0-1-.33 3.32 3.32 0 0 0-1 .16 7.68 7.68 0 0 0-.94.37l-.48-1.05a5.14 5.14 0 0 1 1.23-.45 5.67 5.67 0 0 1 1.26-.15 3 3 0 0 1 2 .58 2.25 2.25 0 0 1 .67 1.81v4.66h-1.05zm-2.19-1a1.82 1.82 0 0 0 1.28-.45 1.62 1.62 0 0 0 .48-1.25V66h-.89a3 3 0 0 0-1.51.35 1.05 1.05 0 0 0-.47.95.93.93 0 0 0 .28.72 1.18 1.18 0 0 0 .83.25zM223.56 68.21a3.59 3.59 0 0 0 1.08-.17v1.11a3 3 0 0 1-.63.18 4.37 4.37 0 0 1-.8.07 1.9 1.9 0 0 1-2.09-2.2v-3.73h-.94v-.65l1-.54.5-1.46h.91v1.54h2v1.11h-2v3.7a1 1 0 0 0 .27.78 1 1 0 0 0 .7.26zM230.35 69.28l-.29-1H230a2.84 2.84 0 0 1-1 .86 3.19 3.19 0 0 1-1.3.23 2.2 2.2 0 0 1-1.59-.55 2.06 2.06 0 0 1-.57-1.56 1.83 1.83 0 0 1 .79-1.61 4.57 4.57 0 0 1 2.42-.59h1.19v-.38a1.4 1.4 0 0 0-.31-1 1.26 1.26 0 0 0-1-.33 3.32 3.32 0 0 0-1 .16 7.68 7.68 0 0 0-.94.37l-.48-1.05a5.14 5.14 0 0 1 1.23-.45 5.67 5.67 0 0 1 1.26-.15 3 3 0 0 1 2 .58 2.25 2.25 0 0 1 .67 1.81v4.66h-1.05zm-2.19-1a1.82 1.82 0 0 0 1.28-.45 1.62 1.62 0 0 0 .48-1.25V66H229a3 3 0 0 0-1.51.35 1.05 1.05 0 0 0-.47.95.93.93 0 0 0 .28.72 1.18 1.18 0 0 0 .86.25z"/><path class="cls-2" d="M46.07 32.11q-.15.48-.26 1c-.08.32-.16.63-.22 1a35.88 35.88 0 0 0-.6 3.36c0 .34-.1.68-.12 1v.17c0 .29 0 .57-.06.85a35.61 35.61 0 0 1-5-1.73c.16-.26.31-.53.45-.8v-.08c.17-.29.32-.59.47-.89a33.85 33.85 0 0 0 1.39-3.11c.13-.31.25-.62.36-.93a.14.14 0 0 1 0-.06c.11-.29.21-.59.29-.89a28.41 28.41 0 0 0 3.3 1.11zM67.9 35c0 .82 0 1.56-.07 2.26a1 1 0 0 1-.62.86 35.48 35.48 0 0 1-13 2.55c-.7 0-1.4 0-2.07-.06 0-.33 0-.66.07-1 0-.34.06-.68.1-1a24.77 24.77 0 0 1 .62-3.37c.06-.26.13-.52.2-.77l.06-.21c.1-.33.2-.66.3-1h.66a28 28 0 0 0 12.09-2.8 1 1 0 0 1 .92 0 1 1 0 0 1 .5.76A32.66 32.66 0 0 1 67.9 35zM36.26 27c-.09.35-.2.7-.3 1 0 .11-.06.22-.1.33s-.15.45-.23.67a25.81 25.81 0 0 1-1.35 3.25c-.15.3-.3.6-.46.89a.46.46 0 0 1 0 .1c-.14.26-.29.52-.44.77a35.78 35.78 0 0 1-15.17-29V3.78a1.13 1.13 0 0 1 .6-1A35 35 0 0 1 24.48 1a1 1 0 0 1 1.23 1 25.78 25.78 0 0 0-.14 3 28.48 28.48 0 0 0 10.69 22zM21.65 46.2v1.1a25 25 0 0 1-.39 3.88 4.87 4.87 0 0 1-.09.55c0 .2-.08.41-.13.61-.08.39-.17.78-.27 1.17A35.43 35.43 0 0 1 9 55.57a36.79 36.79 0 0 1-4.87-.3 1 1 0 0 1-.7-.43 34.73 34.73 0 0 1-3.4-6.37 1 1 0 0 1 .18-1 1 1 0 0 1 1-.3 28.06 28.06 0 0 0 7.74 1 28.39 28.39 0 0 0 12.59-3v.7a2.42 2.42 0 0 1 .11.33zM39.79 37.71a36.1 36.1 0 0 1-10.86 11.67v-.49-.79-1.25-.6c0-1.21-.09-2.43-.21-3.65l-.06-.53c0-.22-.05-.45-.09-.67q-.08-.61-.19-1.2a27.8 27.8 0 0 0 4.83-6.13l.77.53h.06c.27.19.55.37.83.53a32.51 32.51 0 0 0 3 1.67q.45.24.9.44h.07z"/><path class="cls-3" d="M42.83 30.94c-.09.3-.19.6-.29.89a.14.14 0 0 0 0 .06l-.36.93a33.85 33.85 0 0 1-1.39 3.11c-.16.3-.31.6-.47.89v.08c-.15.27-.3.54-.45.8l-.85-.38h-.07q-.45-.21-.9-.44a32.51 32.51 0 0 1-3-1.67c-.28-.17-.56-.35-.83-.53h-.06l-.77-.53c.16-.25.31-.51.44-.77a.46.46 0 0 0 0-.1c.17-.29.32-.59.46-.89a25.81 25.81 0 0 0 1.35-3.25c.08-.22.16-.44.23-.67s.07-.22.1-.33c.11-.34.22-.69.3-1 .28.23.56.45.85.65l.28.21c.19.14.38.28.58.41a26.82 26.82 0 0 0 3 1.81l.9.44h.11q.43.12.84.28zM29.06 46.25v3.13l-.4.27-.67.42c-.36.23-.72.44-1.08.65A35.17 35.17 0 0 1 23 52.64l-.5.21-.63.25c-.38.15-.75.28-1.13.42.1-.39.19-.78.27-1.17 0-.2.09-.41.13-.61a4.87 4.87 0 0 0 .09-.55 25 25 0 0 0 .39-3.88V46.2a2.42 2.42 0 0 0 0-.38v-.7l.56-.29.42-.23c.33-.17.65-.35 1-.55a27.94 27.94 0 0 0 3.19-2.27l.42-.34.41-.44c.3-.25.6-.52.87-.8q.11.58.19 1.2c0 .22.06.45.09.67l.06.53c.17 1.22.22 2.4.23 3.65z"/><path class="cls-2" d="M44.61 19.55a35.71 35.71 0 0 1-1.79 11.39q-.41-.16-.81-.35h-.11l-.9-.5a26.82 26.82 0 0 1-3-1.81c-.2-.13-.39-.27-.58-.41l-.28-.21c-.29-.21-.57-.43-.85-.65a28 28 0 0 0 .94-7.42 28.43 28.43 0 0 0-6.57-17.93 1 1 0 0 1-.14-1A1 1 0 0 1 31.4 0a35.26 35.26 0 0 1 7.17.46 1 1 0 0 1 .68.47 35.64 35.64 0 0 1 5.36 18.62zM28.93 49.38A35.5 35.5 0 0 1 21.87 68a1 1 0 0 1-.79.4 1 1 0 0 1-.34-.06 33.28 33.28 0 0 1-5.23-2.39 1 1 0 0 1-.51-.7 1 1 0 0 1 .2-.81 28.39 28.39 0 0 0 5.52-10.91c.38-.13.75-.26 1.13-.42l.63-.25.5-.21a35.17 35.17 0 0 0 3.78-1.91c.36-.2.72-.41 1.08-.65l.67-.42zM28.5 40.21c-.28.27-.58.54-.87.8l-.49.43-.42.34A27.94 27.94 0 0 1 23.53 44c-.32.19-.64.37-1 .55l-.42.23-.56.29A28.46 28.46 0 0 0 2.4 19.64a1 1 0 0 1-.6-.59 1 1 0 0 1 .05-.85A33.44 33.44 0 0 1 5 13.42a1 1 0 0 1 1.14-.31 35.74 35.74 0 0 1 22.36 27.1zM47.73 56.44a28.49 28.49 0 0 0-11.86 13.28 1 1 0 0 1-.85.61c-.69 0-1.39.07-2.11.07a35.86 35.86 0 0 1-3.85-.18 1 1 0 0 1-.74-.47 1 1 0 0 1-.1-.87 36.28 36.28 0 0 1 17.19-19.63c.05.25.1.51.16.76l.06.25c.08.34.16.68.26 1A30.66 30.66 0 0 0 47 54.58c.1.28.2.55.32.82l.05.12q.14.48.36.92zM66 46.66a34.23 34.23 0 0 1-2.41 5.47 1 1 0 0 1-.94.52h-.91a28.29 28.29 0 0 0-7.15 1c-.14-.31-.27-.62-.4-.94a.35.35 0 0 1 0-.09 4.52 4.52 0 0 1-.37-.9 26.78 26.78 0 0 1-1-3.27c-.07-.3-.13-.59-.2-.89a.22.22 0 0 1 0-.08c-.07-.33-.13-.67-.18-1a35.75 35.75 0 0 1 9.22-1.27c1.17 0 2.32 0 3.45.14a1 1 0 0 1 .74.45 1 1 0 0 1 .15.86z"/><path class="cls-3" d="M54.57 53.59c-.33.08-.65.17-1 .28h-.1l-.86.29a24.93 24.93 0 0 0-3.15 1.31l-.81.42-.06.11q-.43.23-.87.49-.21-.46-.4-.93l-.05-.12c-.11-.27-.21-.54-.32-.82a30.66 30.66 0 0 1-1.07-3.31c-.09-.33-.17-.67-.26-1l-.05-.31c-.06-.25-.11-.51-.16-.76.23-.13.46-.25.7-.36l.23-.11.94-.44a31.26 31.26 0 0 1 3.25-1.26q.42-.15.84-.28h.12l1-.29c0 .33.1.67.18 1a.22.22 0 0 0 0 .08c.06.3.12.59.2.89a26.78 26.78 0 0 0 1 3.27c.09.28.2.56.32.84a.35.35 0 0 0 0 .09c.1.33.24.61.38.92z"/><path class="cls-2" d="M57.53 60.14a33.6 33.6 0 0 1-4.26 3.62 1 1 0 0 1-.58.18 1 1 0 0 1-.8-.39 35.87 35.87 0 0 1-4.17-7.1q.43-.26.87-.49l.09-.05.81-.42a24.93 24.93 0 0 1 3.15-1.31l.86-.29h.1c.32-.1.64-.19 1-.28a27.37 27.37 0 0 0 3.06 5.25 1 1 0 0 1-.13 1.28z"/><path class="cls-3" d="M53.48 33.22c-.11.33-.21.66-.3 1l-.06.21c-.08.25-.15.51-.2.77a24.77 24.77 0 0 0-.62 3.37c0 .33-.08.67-.1 1 0 .32-.06.65-.07 1-.34 0-.67 0-1-.06l-1-.09a32.89 32.89 0 0 1-3.4-.52l-1-.22h-.16l-.82-.2c0-.28 0-.56.06-.85v-.17c0-.33.08-.67.12-1 .14-1.12.35-2.24.6-3.36.07-.32.15-.63.22-1q.12-.48.26-1c.32.1.63.19 1 .26.32.09.65.16 1 .22a26 26 0 0 0 3.41.5l.78.06h.24z"/><path class="cls-2" d="M52.45 46.48l-1 .29h-.12q-.42.12-.84.28a31.26 31.26 0 0 0-3.25 1.26l-.94.44-.23.11c-.24.11-.47.23-.7.36a36.8 36.8 0 0 1-.74-7c0-.93 0-1.85.09-2.79l.82.2h.16l1 .22a32.89 32.89 0 0 0 3.4.52l1 .09c.33 0 .66.06 1 .06v1.6a27 27 0 0 0 .35 4.36zM63.24 19.45a28.58 28.58 0 0 0-9.76 13.77h-1.24l-.78-.06A26 26 0 0 1 48 32.6c-.33-.07-.66-.14-1-.22-.32-.08-.63-.17-1-.26a36 36 0 0 1 13-18.77 1 1 0 0 1 1.38.18 34.94 34.94 0 0 1 3.09 4.64 1 1 0 0 1-.23 1.28z"/></svg>