<svg id="Layer_1" data-name="Layer 1" xmlns="http://www.w3.org/2000/svg" viewBox="0 0 231.4 72.35"><defs><style>.cls-1{fill:#555655;}.cls-2{fill:#7bbc55;}.cls-3{fill:#17a84e;}</style></defs><title>Indaba Logo 012816 -kc1</title><path class="cls-1" d="M74.87,17.22h5.34A0.68,0.68,0,0,1,81,18v34.4a0.68,0.68,0,0,1-.77.77H74.87a0.68,0.68,0,0,1-.77-0.77V18A0.68,0.68,0,0,1,74.87,17.22Z"/><path class="cls-1" d="M112.92,18v34.4a0.68,0.68,0,0,1-.77.77h-6.73a0.94,0.94,0,0,1-.92-0.56L94.43,28.93V52.39a0.68,0.68,0,0,1-.77.77H88.43a0.68,0.68,0,0,1-.77-0.77V18a0.68,0.68,0,0,1,.77-0.77H95.2a0.94,0.94,0,0,1,.92.57l10,23.62V18a0.68,0.68,0,0,1,.77-0.77h5.24A0.68,0.68,0,0,1,112.92,18Z"/><path class="cls-1" d="M144.09,27.23V43c0,6.06-3.23,10.12-10.17,10.12H120.37a0.68,0.68,0,0,1-.77-0.77V18a0.68,0.68,0,0,1,.77-0.77h13.56C140.85,17.22,144.09,21.23,144.09,27.23Zm-6.78,0c0-3.13-1-4-3.39-4h-7.55V47.1h7.55c2.36,0,3.39-.82,3.39-4.06V27.23Z"/><path class="cls-1" d="M172.08,53.16h-5.49a0.89,0.89,0,0,1-.92-0.82L164.17,46h-8.68L154,52.34a0.89,0.89,0,0,1-.92.82h-5.44a0.57,0.57,0,0,1-.62-0.82l9.7-34.3a1,1,0,0,1,1-.82H162a1,1,0,0,1,1,.82l9.7,34.3C172.79,52.91,172.59,53.16,172.08,53.16Zm-9.34-13L159.8,28.05l-2.88,12.07h5.8Z"/><path class="cls-1" d="M202.48,40.69v2.77c0,6.37-3.39,9.7-10.73,9.7h-13.4a0.68,0.68,0,0,1-.77-0.77V18a0.68,0.68,0,0,1,.77-0.77h13.2c6.62,0,9.65,2.82,9.65,10A9.42,9.42,0,0,1,199,33.65,8.42,8.42,0,0,1,202.48,40.69ZM191.54,23.28h-7.19v8.16h7.19c2.05,0,2.88-.51,2.88-4.26C194.41,23.59,193.59,23.28,191.54,23.28Zm4.16,17.41c0-2.93-1.18-3.75-4-3.75h-7.39V47.1h7.39c2.77,0,4-.77,4-3.65V40.69Z"/><path class="cls-1" d="M230.72,53.16h-5.49a0.89,0.89,0,0,1-.92-0.82L222.81,46h-8.68l-1.54,6.32a0.89,0.89,0,0,1-.92.82h-5.44a0.57,0.57,0,0,1-.62-0.82l9.7-34.3a1,1,0,0,1,1-.82h4.36a1,1,0,0,1,1,.82l9.71,34.3C231.44,52.91,231.23,53.16,230.72,53.16Zm-9.35-13-2.93-12.07-2.87,12.07h5.8Z"/><path class="cls-1" d="M78.17,69.28H76.68V61.42H74V60.13h6.87v1.28H78.17v7.86Z"/><path class="cls-1" d="M87,69.28l-0.21-.91H86.7a2.09,2.09,0,0,1-.87.76,2.92,2.92,0,0,1-1.29.27,2.53,2.53,0,0,1-1.88-.63A2.59,2.59,0,0,1,82,66.88V62.36h1.48v4.26a1.85,1.85,0,0,0,.33,1.19,1.24,1.24,0,0,0,1,.4,1.62,1.62,0,0,0,1.36-.55,3.05,3.05,0,0,0,.43-1.85V62.36h1.48v6.92H87Z"/><path class="cls-1" d="M93.74,62.23a3.54,3.54,0,0,1,.73.06l-0.14,1.37a2.75,2.75,0,0,0-.65-0.08,1.88,1.88,0,0,0-1.43.58,2.08,2.08,0,0,0-.55,1.5v3.61H90.23V62.36h1.15l0.19,1.22h0.07a2.74,2.74,0,0,1,.9-1A2.14,2.14,0,0,1,93.74,62.23Z"/><path class="cls-1" d="M101.84,69.28h-1.48V65a1.86,1.86,0,0,0-.32-1.19,1.24,1.24,0,0,0-1-.39,1.63,1.63,0,0,0-1.36.55,3,3,0,0,0-.43,1.84v3.45H95.76V62.36h1.15l0.21,0.91h0.07a2,2,0,0,1,.89-0.76,3,3,0,0,1,1.28-.27,2.22,2.22,0,0,1,2.49,2.53v4.51Z"/><path class="cls-1" d="M108.63,65.62l0.83-1,2.09-2.23h1.69l-2.78,3,3,3.95h-1.73l-2.22-3-0.81.66v2.37h-1.46V59.55h1.46v4.75l-0.07,1.33h0Z"/><path class="cls-1" d="M120.62,69.28h-1.48V65a1.86,1.86,0,0,0-.32-1.19,1.24,1.24,0,0,0-1-.39,1.63,1.63,0,0,0-1.36.55,3,3,0,0,0-.43,1.84v3.45h-1.47V62.36h1.15l0.21,0.91H116a2,2,0,0,1,.89-0.76,3,3,0,0,1,1.28-.27,2.22,2.22,0,0,1,2.49,2.53v4.51Z"/><path class="cls-1" d="M128.8,65.8a3.78,3.78,0,0,1-.87,2.65,3.11,3.11,0,0,1-2.42.95,3.32,3.32,0,0,1-1.71-.44,2.89,2.89,0,0,1-1.14-1.26,4.28,4.28,0,0,1-.4-1.9,3.75,3.75,0,0,1,.86-2.63,3.13,3.13,0,0,1,2.43-.94,3,3,0,0,1,2.38,1A3.73,3.73,0,0,1,128.8,65.8Zm-5,0q0,2.39,1.77,2.39t1.75-2.39q0-2.37-1.76-2.37a1.5,1.5,0,0,0-1.34.61A3.11,3.11,0,0,0,123.76,65.8Z"/><path class="cls-1" d="M136.16,69.28L135.26,66q-0.16-.51-0.59-2.38h-0.06q-0.36,1.69-.58,2.39l-0.92,3.21H131.5l-1.94-6.92h1.5l0.88,3.41q0.3,1.26.43,2.16h0q0.06-.46.19-1c0.09-.39.16-0.69,0.22-0.89l1.05-3.64h1.61l1,3.64c0.06,0.2.14,0.52,0.23,0.94a7.2,7.2,0,0,1,.17,1h0.05a19.22,19.22,0,0,1,.44-2.15l0.89-3.41h1.48l-2,6.92h-1.65Z"/><path class="cls-1" d="M142.41,69.28h-1.47V59.55h1.47v9.73Z"/><path class="cls-1" d="M147.54,69.4a3.34,3.34,0,0,1-2.52-.94,3.57,3.57,0,0,1-.91-2.59,3.92,3.92,0,0,1,.84-2.66,2.92,2.92,0,0,1,2.32-1,2.85,2.85,0,0,1,2.16.83,3.18,3.18,0,0,1,.79,2.29v0.79h-4.61a2.27,2.27,0,0,0,.54,1.55,1.9,1.9,0,0,0,1.44.54,5.32,5.32,0,0,0,1.14-.12,6,6,0,0,0,1.13-.38v1.19a4.51,4.51,0,0,1-1.09.36A6.72,6.72,0,0,1,147.54,69.4Zm-0.27-6.05a1.48,1.48,0,0,0-1.12.44,2.12,2.12,0,0,0-.5,1.29h3.14a1.92,1.92,0,0,0-.41-1.3A1.41,1.41,0,0,0,147.27,63.35Z"/><path class="cls-1" d="M154.23,69.4a2.41,2.41,0,0,1-2-.94,5.14,5.14,0,0,1,0-5.28,2.43,2.43,0,0,1,2-.95,2.38,2.38,0,0,1,2.08,1h0.07a8.79,8.79,0,0,1-.11-1.18V59.55h1.48v9.73h-1.15l-0.26-.91H156.3A2.35,2.35,0,0,1,154.23,69.4Zm0.39-1.19a1.6,1.6,0,0,0,1.32-.51,2.68,2.68,0,0,0,.43-1.65V65.84a3.1,3.1,0,0,0-.43-1.86,1.58,1.58,0,0,0-1.33-.55,1.35,1.35,0,0,0-1.19.63,3.22,3.22,0,0,0-.42,1.79,3.14,3.14,0,0,0,.41,1.75A1.37,1.37,0,0,0,154.62,68.21Z"/><path class="cls-1" d="M165.71,62.36v0.81l-1.18.22a1.9,1.9,0,0,1,.27.54,2.12,2.12,0,0,1,.11.68,2.07,2.07,0,0,1-.74,1.68,3.09,3.09,0,0,1-2,.61,3.36,3.36,0,0,1-.6,0,0.83,0.83,0,0,0-.47.69,0.38,0.38,0,0,0,.22.36,1.92,1.92,0,0,0,.82.12h1.21a2.68,2.68,0,0,1,1.74.49,1.72,1.72,0,0,1,.59,1.41,2,2,0,0,1-1,1.81,5.11,5.11,0,0,1-2.8.64,3.86,3.86,0,0,1-2.16-.5,1.62,1.62,0,0,1-.74-1.43,1.52,1.52,0,0,1,.4-1.07,2.17,2.17,0,0,1,1.13-.6,1.1,1.1,0,0,1-.48-0.4,1,1,0,0,1-.19-0.58,1,1,0,0,1,.22-0.66,2.51,2.51,0,0,1,.65-0.53,1.93,1.93,0,0,1-.87-0.75,2.22,2.22,0,0,1-.33-1.22,2.19,2.19,0,0,1,.71-1.74,3,3,0,0,1,2-.62,4.8,4.8,0,0,1,.62,0,3.73,3.73,0,0,1,.48.08h2.39Zm-5.43,8a0.81,0.81,0,0,0,.43.73,2.36,2.36,0,0,0,1.2.26A3.63,3.63,0,0,0,163.7,71a1,1,0,0,0,.59-0.91,0.69,0.69,0,0,0-.32-0.64,2.59,2.59,0,0,0-1.2-.19h-1.11a1.57,1.57,0,0,0-1,.3A1,1,0,0,0,160.28,70.35Zm0.63-5.75a1.39,1.39,0,0,0,.33,1,1.27,1.27,0,0,0,1,.35,1.17,1.17,0,0,0,1.28-1.36,1.55,1.55,0,0,0-.32-1,1.2,1.2,0,0,0-1-.37,1.24,1.24,0,0,0-1,.36A1.53,1.53,0,0,0,160.91,64.6Z"/><path class="cls-1" d="M170,69.4a3.34,3.34,0,0,1-2.52-.94,3.57,3.57,0,0,1-.91-2.59,3.92,3.92,0,0,1,.84-2.66,2.92,2.92,0,0,1,2.32-1,2.85,2.85,0,0,1,2.16.83,3.18,3.18,0,0,1,.79,2.29v0.79h-4.61a2.27,2.27,0,0,0,.54,1.55,1.9,1.9,0,0,0,1.44.54,5.32,5.32,0,0,0,1.14-.12,6,6,0,0,0,1.13-.38v1.19a4.51,4.51,0,0,1-1.09.36A6.72,6.72,0,0,1,170,69.4Zm-0.27-6.05a1.48,1.48,0,0,0-1.12.44,2.12,2.12,0,0,0-.5,1.29h3.14a1.92,1.92,0,0,0-.41-1.3A1.41,1.41,0,0,0,169.75,63.35Z"/><path class="cls-1" d="M177.61,60.53a0.81,0.81,0,0,1,.22-0.61,0.84,0.84,0,0,1,.62-0.21,0.74,0.74,0,0,1,.82.82,0.8,0.8,0,0,1-.22.59,0.82,0.82,0,0,1-.6.22,0.83,0.83,0,0,1-.62-0.22A0.8,0.8,0,0,1,177.61,60.53Zm1.56,8.75H177.7V62.36h1.47v6.92Z"/><path class="cls-1" d="M187.35,69.28h-1.48V65a1.86,1.86,0,0,0-.32-1.19,1.24,1.24,0,0,0-1-.39,1.63,1.63,0,0,0-1.36.55,3,3,0,0,0-.43,1.84v3.45h-1.47V62.36h1.15l0.21,0.91h0.07a2,2,0,0,1,.89-0.76,3,3,0,0,1,1.28-.27,2.22,2.22,0,0,1,2.49,2.53v4.51Z"/><path class="cls-1" d="M192,68.21A3.59,3.59,0,0,0,193,68v1.11a3,3,0,0,1-.63.18,4.37,4.37,0,0,1-.8.07,1.9,1.9,0,0,1-2.09-2.2V63.47h-0.94V62.82l1-.54,0.5-1.46H191v1.54h2v1.11h-2v3.7a1,1,0,0,0,.27.78A1,1,0,0,0,192,68.21Z"/><path class="cls-1" d="M200.57,65.8a3.78,3.78,0,0,1-.87,2.65,3.11,3.11,0,0,1-2.42.95,3.32,3.32,0,0,1-1.71-.44,2.89,2.89,0,0,1-1.14-1.26,4.28,4.28,0,0,1-.4-1.9,3.75,3.75,0,0,1,.86-2.63,3.13,3.13,0,0,1,2.43-.94,3,3,0,0,1,2.38,1A3.73,3.73,0,0,1,200.57,65.8Zm-5,0q0,2.39,1.77,2.39t1.75-2.39q0-2.37-1.76-2.37a1.5,1.5,0,0,0-1.34.61A3.11,3.11,0,0,0,195.53,65.8Z"/><path class="cls-1" d="M207.91,69.4a2.41,2.41,0,0,1-2-.94,5.14,5.14,0,0,1,0-5.28,2.43,2.43,0,0,1,2-.95,2.38,2.38,0,0,1,2.08,1h0.07a8.79,8.79,0,0,1-.11-1.18V59.55h1.48v9.73h-1.15l-0.26-.91H210A2.35,2.35,0,0,1,207.91,69.4Zm0.39-1.19a1.6,1.6,0,0,0,1.32-.51,2.68,2.68,0,0,0,.43-1.65V65.84a3.1,3.1,0,0,0-.43-1.86,1.58,1.58,0,0,0-1.33-.55,1.35,1.35,0,0,0-1.19.63,3.22,3.22,0,0,0-.42,1.79,3.14,3.14,0,0,0,.41,1.75A1.37,1.37,0,0,0,208.31,68.21Z"/><path class="cls-1" d="M217.89,69.28l-0.29-1h-0.05a2.84,2.84,0,0,1-1,.86,3.19,3.19,0,0,1-1.3.23,2.2,2.2,0,0,1-1.59-.55,2.06,2.06,0,0,1-.57-1.56,1.83,1.83,0,0,1,.79-1.61,4.57,4.57,0,0,1,2.42-.59l1.19,0V64.68a1.4,1.4,0,0,0-.31-1,1.26,1.26,0,0,0-1-.33,3.32,3.32,0,0,0-1,.16,7.68,7.68,0,0,0-.94.37l-0.48-1.05a5.14,5.14,0,0,1,1.23-.45,5.67,5.67,0,0,1,1.26-.15,3,3,0,0,1,2,.58,2.25,2.25,0,0,1,.67,1.81v4.66h-1.05Zm-2.19-1a1.82,1.82,0,0,0,1.28-.45,1.62,1.62,0,0,0,.48-1.25V66l-0.89,0a3,3,0,0,0-1.51.35,1.05,1.05,0,0,0-.47.95,0.93,0.93,0,0,0,.28.72A1.18,1.18,0,0,0,215.7,68.27Z"/><path class="cls-1" d="M223.56,68.21a3.59,3.59,0,0,0,1.08-.17v1.11a3,3,0,0,1-.63.18,4.37,4.37,0,0,1-.8.07,1.9,1.9,0,0,1-2.09-2.2V63.47h-0.94V62.82l1-.54,0.5-1.46h0.91v1.54h2v1.11h-2v3.7a1,1,0,0,0,.27.78A1,1,0,0,0,223.56,68.21Z"/><path class="cls-1" d="M230.35,69.28l-0.29-1H230a2.84,2.84,0,0,1-1,.86,3.19,3.19,0,0,1-1.3.23,2.2,2.2,0,0,1-1.59-.55,2.06,2.06,0,0,1-.57-1.56,1.83,1.83,0,0,1,.79-1.61,4.57,4.57,0,0,1,2.42-.59l1.19,0V64.68a1.4,1.4,0,0,0-.31-1,1.26,1.26,0,0,0-1-.33,3.32,3.32,0,0,0-1,.16,7.68,7.68,0,0,0-.94.37l-0.48-1.05a5.14,5.14,0,0,1,1.23-.45,5.67,5.67,0,0,1,1.26-.15,3,3,0,0,1,2,.58,2.25,2.25,0,0,1,.67,1.81v4.66h-1.05Zm-2.19-1a1.82,1.82,0,0,0,1.28-.45,1.62,1.62,0,0,0,.48-1.25V66L229,66a3,3,0,0,0-1.51.35,1.05,1.05,0,0,0-.47.95,0.93,0.93,0,0,0,.28.72A1.18,1.18,0,0,0,228.16,68.27Z"/><path class="cls-2" d="M46.07,32.11q-0.15.48-.26,1v0c-0.08.32-.16,0.63-0.22,1-0.25,1.12-.46,2.24-0.6,3.36,0,0.34-.1.68-0.12,1,0,0.06,0,.11,0,0.17,0,0.29,0,.57-0.06.85a35.61,35.61,0,0,1-5-1.73c0.16-.26.31-0.53,0.45-0.8,0,0,0-.05,0-0.08,0.17-.29.32-0.59,0.47-0.89a33.85,33.85,0,0,0,1.39-3.11c0.13-.31.25-0.62,0.36-0.93a0.14,0.14,0,0,1,0-.06c0.11-.29.21-0.59,0.29-0.89A28.41,28.41,0,0,0,46.07,32.11Z"/><path class="cls-2" d="M67.9,35c0,0.82,0,1.56-.07,2.26a1,1,0,0,1-.62.86,35.48,35.48,0,0,1-13,2.55c-0.7,0-1.4,0-2.07-.06,0-.33,0-0.66.07-1h0c0-.34.06-0.68,0.1-1a24.77,24.77,0,0,1,.62-3.37c0.06-.26.13-0.52,0.2-0.77h0l0.06-.21c0.1-.33.2-0.66,0.3-1h0.66a28,28,0,0,0,12.09-2.8,1,1,0,0,1,.92,0,1,1,0,0,1,.5.76A32.66,32.66,0,0,1,67.9,35Z"/><path class="cls-2" d="M36.26,27c-0.09.35-.2,0.7-0.3,1,0,0.11-.06.22-0.1,0.33s-0.15.45-.23,0.67a25.81,25.81,0,0,1-1.35,3.25c-0.15.3-.3,0.6-0.46,0.89a0.46,0.46,0,0,1,0,.1c-0.14.26-.29,0.52-0.44,0.77a35.78,35.78,0,0,1-15.17-29c0-.41,0-0.82,0-1.23a1.13,1.13,0,0,1,.6-1A35,35,0,0,1,24.48,1,1,1,0,0,1,25.71,2a25.78,25.78,0,0,0-.14,3A28.48,28.48,0,0,0,36.26,27Z"/><path class="cls-2" d="M21.65,46.2v0.1c0,0.34,0,.67,0,1a25,25,0,0,1-.39,3.88,4.87,4.87,0,0,1-.09.55c0,0.2-.08.41-0.13,0.61-0.08.39-.17,0.78-0.27,1.17A35.43,35.43,0,0,1,9,55.57a36.79,36.79,0,0,1-4.87-.3,1,1,0,0,1-.7-0.43,34.73,34.73,0,0,1-3.4-6.37,1,1,0,0,1,.18-1,1,1,0,0,1,1-.3,28.06,28.06,0,0,0,7.74,1,28.39,28.39,0,0,0,12.59-3c0,0.23,0,.47,0,0.7A2.42,2.42,0,0,1,21.65,46.2Z"/><path class="cls-2" d="M39.79,37.71A36.1,36.1,0,0,1,28.93,49.38c0-.16,0-0.33,0-0.49s0-.53,0-0.79c0-.41,0-0.83,0-1.25,0-.2,0-0.4,0-0.6,0-1.21-.09-2.43-0.21-3.65l-0.06-.53c0-.22-0.05-0.45-0.09-0.67q-0.08-.61-0.19-1.2a27.8,27.8,0,0,0,4.83-6.13l0.77,0.53,0.06,0c0.27,0.19.55,0.37,0.83,0.53a32.51,32.51,0,0,0,3,1.67q0.45,0.24.9,0.44l0.07,0Z"/><path class="cls-3" d="M42.83,30.94c-0.09.3-.19,0.6-0.29,0.89a0.14,0.14,0,0,0,0,.06c-0.12.31-.24,0.62-0.36,0.93a33.85,33.85,0,0,1-1.39,3.11c-0.16.3-.31,0.6-0.47,0.89,0,0,0,0,0,.08-0.15.27-.3,0.54-0.45,0.8l-0.85-.38-0.07,0q-0.45-.21-0.9-0.44a32.51,32.51,0,0,1-3-1.67c-0.28-.17-0.56-0.35-0.83-0.53l-0.06,0-0.77-.53c0.16-.25.31-0.51,0.44-0.77a0.46,0.46,0,0,0,0-.1c0.17-.29.32-0.59,0.46-0.89a25.81,25.81,0,0,0,1.35-3.25c0.08-.22.16-0.44,0.23-0.67s0.07-.22.1-0.33c0.11-.34.22-0.69,0.3-1,0.28,0.23.56,0.45,0.85,0.65l0.28,0.21c0.19,0.14.38,0.28,0.58,0.41a26.82,26.82,0,0,0,3,1.81l0.9,0.44,0.11,0Q42.42,30.78,42.83,30.94Z"/><path class="cls-3" d="M29.06,46.25c0,0.2,0,.4,0,0.6,0,0.42,0,.84,0,1.25,0,0.26,0,.53,0,0.79s0,0.33,0,.49l-0.4.27-0.67.42c-0.36.23-.72,0.44-1.08,0.65A35.17,35.17,0,0,1,23,52.64l-0.5.21-0.63.25c-0.38.15-.75,0.28-1.13,0.42,0.1-.39.19-0.78,0.27-1.17,0-.2.09-0.41,0.13-0.61a4.87,4.87,0,0,0,.09-0.55,25,25,0,0,0,.39-3.88c0-.34,0-0.67,0-1V46.2a2.42,2.42,0,0,0,0-.38c0-.23,0-0.47,0-0.7l0.56-.29,0.42-.23c0.33-.17.65-0.35,1-0.55a27.94,27.94,0,0,0,3.19-2.27l0.42-.34L27.62,41c0.3-.25.6-0.52,0.87-0.8q0.11,0.58.19,1.2c0,0.22.06,0.45,0.09,0.67l0.06,0.53C29,43.82,29.05,45,29.06,46.25Z"/><path class="cls-2" d="M44.61,19.55a35.71,35.71,0,0,1-1.79,11.39q-0.41-.16-0.81-0.35l-0.11,0L41,30.09a26.82,26.82,0,0,1-3-1.81c-0.2-.13-0.39-0.27-0.58-0.41l-0.28-.21c-0.29-.21-0.57-0.43-0.85-0.65a28,28,0,0,0,.94-7.42A28.43,28.43,0,0,0,30.66,1.66a1,1,0,0,1-.14-1A1,1,0,0,1,31.4,0a35.26,35.26,0,0,1,7.17.46,1,1,0,0,1,.68.47A35.64,35.64,0,0,1,44.61,19.55Z"/><path class="cls-2" d="M28.93,49.38A35.5,35.5,0,0,1,21.87,68a1,1,0,0,1-.79.4,1,1,0,0,1-.34-0.06,33.28,33.28,0,0,1-5.23-2.39A1,1,0,0,1,15,65.25a1,1,0,0,1,.2-0.81,28.39,28.39,0,0,0,5.52-10.91c0.38-.13.75-0.26,1.13-0.42l0.63-.25,0.5-.21a35.17,35.17,0,0,0,3.78-1.91c0.36-.2.72-0.41,1.08-0.65l0.67-.42Z"/><path class="cls-2" d="M28.5,40.21c-0.28.27-.58,0.54-0.87,0.8l-0.49.43-0.42.34A27.94,27.94,0,0,1,23.53,44c-0.32.19-.64,0.37-1,0.55l-0.42.23-0.56.29A28.46,28.46,0,0,0,2.4,19.64a1,1,0,0,1-.6-0.59,1,1,0,0,1,.05-0.85A33.44,33.44,0,0,1,5,13.42a1,1,0,0,1,1.14-.31A35.74,35.74,0,0,1,28.5,40.21Z"/><path class="cls-2" d="M47.73,56.44A28.49,28.49,0,0,0,35.87,69.72a1,1,0,0,1-.85.61c-0.69,0-1.39.07-2.11,0.07a35.86,35.86,0,0,1-3.85-.18,1,1,0,0,1-.74-0.47,1,1,0,0,1-.1-0.87A36.28,36.28,0,0,1,45.41,49.25c0.05,0.25.1,0.51,0.16,0.76l0.06,0.25c0.08,0.34.16,0.68,0.26,1A30.66,30.66,0,0,0,47,54.58c0.1,0.28.2,0.55,0.32,0.82l0.05,0.12Q47.51,56,47.73,56.44Z"/><path class="cls-2" d="M66,46.66a34.23,34.23,0,0,1-2.41,5.47,1,1,0,0,1-.94.52c-0.3,0-.6,0-0.91,0a28.29,28.29,0,0,0-7.15,1c-0.14-.31-0.27-0.62-0.4-0.94a0.35,0.35,0,0,1,0-.09C54,52.28,53.91,52,53.82,51.72a26.78,26.78,0,0,1-1-3.27c-0.07-.3-0.13-0.59-0.2-0.89a0.22,0.22,0,0,1,0-.08c-0.07-.33-0.13-0.67-0.18-1a35.75,35.75,0,0,1,9.22-1.27c1.17,0,2.32,0,3.45.14a1,1,0,0,1,.74.45A1,1,0,0,1,66,46.66Z"/><path class="cls-3" d="M54.57,53.59c-0.33.08-.65,0.17-1,0.28l-0.1,0-0.86.29a24.93,24.93,0,0,0-3.15,1.31l-0.81.42L48.59,56q-0.43.23-.87,0.49-0.21-.46-0.4-0.93l-0.05-.12c-0.11-.27-0.21-0.54-0.32-0.82a30.66,30.66,0,0,1-1.07-3.31c-0.09-.33-0.17-0.67-0.26-1L45.57,50c-0.06-.25-0.11-0.51-0.16-0.76,0.23-.13.46-0.25,0.7-0.36l0.23-.11,0.94-.44a31.26,31.26,0,0,1,3.25-1.26q0.42-.15.84-0.28l0.12,0,1-.29c0,0.33.1,0.67,0.18,1a0.22,0.22,0,0,0,0,.08c0.06,0.3.12,0.59,0.2,0.89a26.78,26.78,0,0,0,1,3.27c0.09,0.28.2,0.56,0.32,0.84a0.35,0.35,0,0,0,0,.09C54.29,53,54.43,53.28,54.57,53.59Z"/><path class="cls-2" d="M57.53,60.14a33.6,33.6,0,0,1-4.26,3.62,1,1,0,0,1-.58.18,1,1,0,0,1-.8-0.39,35.87,35.87,0,0,1-4.17-7.1q0.43-.26.87-0.49l0.09-.05,0.81-.42a24.93,24.93,0,0,1,3.15-1.31l0.86-.29,0.1,0c0.32-.1.64-0.19,1-0.28a27.37,27.37,0,0,0,3.06,5.25A1,1,0,0,1,57.53,60.14Z"/><path class="cls-3" d="M53.48,33.22c-0.11.33-.21,0.66-0.3,1l-0.06.21h0c-0.08.25-.15,0.51-0.2,0.77a24.77,24.77,0,0,0-.62,3.37c0,0.33-.08.67-0.1,1h0c0,0.32-.06.65-0.07,1-0.34,0-.67,0-1-0.06h0l-1-.09a32.89,32.89,0,0,1-3.4-.52l-1-.22-0.16,0-0.82-.2c0-.28,0-0.56.06-0.85,0-.06,0-0.11,0-0.17,0-.33.08-0.67,0.12-1,0.14-1.12.35-2.24,0.6-3.36,0.07-.32.15-0.63,0.22-1v0q0.12-.48.26-1c0.32,0.1.63,0.19,1,.26h0c0.32,0.09.65,0.16,1,.22a26,26,0,0,0,3.41.5l0.78,0.06,0.24,0Z"/><path class="cls-2" d="M52.45,46.48l-1,.29-0.12,0q-0.42.12-.84,0.28a31.26,31.26,0,0,0-3.25,1.26l-0.94.44-0.23.11c-0.24.11-.47,0.23-0.7,0.36a36.8,36.8,0,0,1-.74-7c0-.93,0-1.85.09-2.79l0.82,0.2,0.16,0,1,0.22a32.89,32.89,0,0,0,3.4.52l1,0.09h0c0.33,0,.66.06,1,0.06,0,0.52,0,1.06,0,1.6A27,27,0,0,0,52.45,46.48Z"/><path class="cls-2" d="M63.24,19.45a28.58,28.58,0,0,0-9.76,13.77l-1,0-0.24,0-0.78-.06A26,26,0,0,1,48,32.6c-0.33-.07-0.66-0.14-1-0.22h0c-0.32-.08-0.63-0.17-1-0.26A36,36,0,0,1,59,13.35a1,1,0,0,1,1.38.18,34.94,34.94,0,0,1,3.09,4.64A1,1,0,0,1,63.24,19.45Z"/></svg>